<svg width="165" height="25" viewBox="0 0 165 25" fill="none" xmlns="http://www.w3.org/2000/svg">
<g clip-path="url(#clip0_384_66)">
<path d="M70.4635 23C70.2472 23 70.0702 22.9312 69.9325 22.7935C69.7948 22.6558 69.726 22.4788 69.726 22.2625V6.4505H64.357C64.1603 6.4505 63.9932 6.38167 63.8555 6.244C63.7178 6.10633 63.649 5.93917 63.649 5.7425V3.0875C63.649 2.87117 63.7178 2.69417 63.8555 2.5565C63.9932 2.41883 64.1603 2.35 64.357 2.35H79.815C80.0313 2.35 80.2083 2.41883 80.346 2.5565C80.4837 2.69417 80.5525 2.87117 80.5525 3.0875V5.7425C80.5525 5.93917 80.4837 6.10633 80.346 6.244C80.2083 6.38167 80.0313 6.4505 79.815 6.4505H74.4755V22.2625C74.4755 22.4788 74.4067 22.6558 74.269 22.7935C74.1313 22.9312 73.9543 23 73.738 23H70.4635ZM84.1275 23C83.9112 23 83.7342 22.9312 83.5965 22.7935C83.4589 22.6558 83.39 22.4788 83.39 22.2625V3.0875C83.39 2.87117 83.4589 2.69417 83.5965 2.5565C83.7342 2.41883 83.9112 2.35 84.1275 2.35H97.491C97.7074 2.35 97.8844 2.41883 98.022 2.5565C98.1597 2.69417 98.2285 2.87117 98.2285 3.0875V5.4475C98.2285 5.64417 98.1597 5.81133 98.022 5.949C97.8844 6.08667 97.7074 6.1555 97.491 6.1555H87.933V10.787H96.842C97.0584 10.787 97.2354 10.8558 97.373 10.9935C97.5107 11.1312 97.5795 11.3082 97.5795 11.5245V13.7075C97.5795 13.9042 97.5107 14.0713 97.373 14.209C97.2354 14.3467 97.0584 14.4155 96.842 14.4155H87.933V19.1945H97.727C97.9434 19.1945 98.1204 19.2633 98.258 19.401C98.3957 19.5387 98.4645 19.7157 98.4645 19.932V22.2625C98.4645 22.4788 98.3957 22.6558 98.258 22.7935C98.1204 22.9312 97.9434 23 97.727 23H84.1275ZM102.709 23C102.512 23 102.335 22.9312 102.178 22.7935C102.04 22.6558 101.972 22.4788 101.972 22.2625V3.0875C101.972 2.87117 102.04 2.69417 102.178 2.5565C102.335 2.41883 102.512 2.35 102.709 2.35H105.453C105.748 2.35 105.964 2.42867 106.102 2.586C106.259 2.74333 106.367 2.86133 106.426 2.94L111.854 12.9405L117.341 2.94C117.38 2.86133 117.469 2.74333 117.607 2.586C117.764 2.42867 117.99 2.35 118.285 2.35H121.029C121.245 2.35 121.422 2.41883 121.56 2.5565C121.697 2.69417 121.766 2.87117 121.766 3.0875V22.2625C121.766 22.4788 121.697 22.6558 121.56 22.7935C121.422 22.9312 121.245 23 121.029 23H118.02C117.823 23 117.656 22.9312 117.518 22.7935C117.38 22.6558 117.312 22.4788 117.312 22.2625V10.3445L113.565 17.3655C113.467 17.5425 113.339 17.6998 113.182 17.8375C113.024 17.9752 112.818 18.044 112.562 18.044H111.176C110.92 18.044 110.713 17.9752 110.556 17.8375C110.399 17.6998 110.271 17.5425 110.173 17.3655L106.426 10.3445V22.2625C106.426 22.4788 106.357 22.6558 106.22 22.7935C106.082 22.9312 105.915 23 105.718 23H102.709ZM126.879 23C126.663 23 126.486 22.9312 126.348 22.7935C126.211 22.6558 126.142 22.4788 126.142 22.2625V3.0875C126.142 2.87117 126.211 2.69417 126.348 2.5565C126.486 2.41883 126.663 2.35 126.879 2.35H134.933C136.526 2.35 137.903 2.59583 139.063 3.0875C140.243 3.57917 141.157 4.3265 141.806 5.3295C142.475 6.31283 142.809 7.542 142.809 9.017C142.809 10.5117 142.475 11.7507 141.806 12.734C141.157 13.6977 140.243 14.4155 139.063 14.8875C137.903 15.3595 136.526 15.5955 134.933 15.5955H130.98V22.2625C130.98 22.4788 130.911 22.6558 130.773 22.7935C130.636 22.9312 130.459 23 130.242 23H126.879ZM130.891 11.9375H134.785C135.788 11.9375 136.565 11.6917 137.116 11.2C137.686 10.7083 137.971 9.97083 137.971 8.9875C137.971 8.12217 137.716 7.41417 137.204 6.8635C136.713 6.31283 135.906 6.0375 134.785 6.0375H130.891V11.9375ZM154.019 23.295C152.23 23.295 150.686 23 149.388 22.41C148.09 21.82 147.077 20.935 146.349 19.755C145.622 18.5553 145.228 17.0508 145.169 15.2415C145.15 14.3958 145.14 13.56 145.14 12.734C145.14 11.8883 145.15 11.0328 145.169 10.1675C145.228 8.3975 145.622 6.91267 146.349 5.713C147.097 4.49367 148.119 3.57917 149.417 2.9695C150.735 2.35983 152.269 2.055 154.019 2.055C155.75 2.055 157.264 2.35983 158.562 2.9695C159.88 3.57917 160.912 4.49367 161.66 5.713C162.407 6.91267 162.8 8.3975 162.84 10.1675C162.879 11.0328 162.899 11.8883 162.899 12.734C162.899 13.56 162.879 14.3958 162.84 15.2415C162.781 17.0508 162.387 18.5553 161.66 19.755C160.932 20.935 159.919 21.82 158.621 22.41C157.323 23 155.789 23.295 154.019 23.295ZM154.019 19.4895C155.16 19.4895 156.094 19.1453 156.822 18.457C157.569 17.749 157.962 16.628 158.002 15.094C158.041 14.2287 158.061 13.4223 158.061 12.675C158.061 11.908 158.041 11.1017 158.002 10.256C157.982 9.23333 157.795 8.3975 157.441 7.7485C157.087 7.0995 156.615 6.6275 156.025 6.3325C155.455 6.01783 154.786 5.8605 154.019 5.8605C153.252 5.8605 152.574 6.01783 151.984 6.3325C151.394 6.6275 150.922 7.0995 150.568 7.7485C150.233 8.3975 150.047 9.23333 150.007 10.256C149.988 11.1017 149.978 11.908 149.978 12.675C149.978 13.4223 149.988 14.2287 150.007 15.094C150.066 16.628 150.46 17.749 151.187 18.457C151.915 19.1453 152.859 19.4895 154.019 19.4895Z" fill="#334155"/>
<path fill-rule="evenodd" clip-rule="evenodd" d="M25.5486 15.8056L24 22H38.25L33.5 3H28.75L27.8008 6.79681L28.2767 7.68403L29.3438 3.59375H32.9062L36.4688 17.25H25.7812L25.9619 16.5574C25.9361 16.5216 25.9123 16.4836 25.8908 16.4436L25.5486 15.8056Z" fill="#334155"/>
<path d="M25.5486 15.8056L25.9892 15.5693C25.8915 15.3872 25.6919 15.284 25.4869 15.3094C25.2819 15.3349 25.1136 15.4839 25.0635 15.6844L25.5486 15.8056ZM24 22L23.5149 21.8787C23.4776 22.0281 23.5111 22.1863 23.6059 22.3077C23.7007 22.4291 23.846 22.5 24 22.5V22ZM38.25 22V22.5C38.404 22.5 38.5493 22.4291 38.6441 22.3077C38.7389 22.1863 38.7724 22.0281 38.7351 21.8787L38.25 22ZM33.5 3L33.9851 2.87873C33.9294 2.65615 33.7294 2.5 33.5 2.5V3ZM28.75 3V2.5C28.5206 2.5 28.3206 2.65615 28.2649 2.87873L28.75 3ZM27.8008 6.79681L27.3157 6.67554C27.2856 6.79613 27.3014 6.92363 27.3602 7.03316L27.8008 6.79681ZM28.2767 7.68403L27.8361 7.92038C27.9333 8.10164 28.1316 8.20485 28.3359 8.18052C28.5401 8.15619 28.7086 8.00926 28.7605 7.81024L28.2767 7.68403ZM29.3438 3.59375V3.09375C29.1162 3.09375 28.9174 3.24737 28.8599 3.46754L29.3438 3.59375ZM32.9062 3.59375L33.3901 3.46754C33.3326 3.24737 33.1338 3.09375 32.9062 3.09375V3.59375ZM36.4688 17.25V17.75C36.6236 17.75 36.7697 17.6782 36.8644 17.5557C36.9591 17.4331 36.9916 17.2736 36.9526 17.1238L36.4688 17.25ZM25.7812 17.25L25.2974 17.1238C25.2584 17.2736 25.2909 17.4331 25.3856 17.5557C25.4803 17.6782 25.6264 17.75 25.7812 17.75V17.25ZM25.9619 16.5574L26.4457 16.6836C26.4834 16.5393 26.4546 16.3856 26.3673 16.2647L25.9619 16.5574ZM25.8908 16.4436L26.3314 16.2073H26.3314L25.8908 16.4436ZM25.0635 15.6844L23.5149 21.8787L24.4851 22.1213L26.0337 15.9269L25.0635 15.6844ZM24 22.5H38.25V21.5H24V22.5ZM38.7351 21.8787L33.9851 2.87873L33.0149 3.12127L37.7649 22.1213L38.7351 21.8787ZM33.5 2.5H28.75V3.5H33.5V2.5ZM28.2649 2.87873L27.3157 6.67554L28.2859 6.91808L29.2351 3.12127L28.2649 2.87873ZM27.3602 7.03316L27.8361 7.92038L28.7173 7.44768L28.2414 6.56046L27.3602 7.03316ZM28.7605 7.81024L29.8276 3.71996L28.8599 3.46754L27.7929 7.55782L28.7605 7.81024ZM29.3438 4.09375H32.9062V3.09375H29.3438V4.09375ZM32.4224 3.71996L35.9849 17.3762L36.9526 17.1238L33.3901 3.46754L32.4224 3.71996ZM36.4688 16.75H25.7812V17.75H36.4688V16.75ZM26.2651 17.3762L26.4457 16.6836L25.4781 16.4312L25.2974 17.1238L26.2651 17.3762ZM26.3673 16.2647C26.3544 16.2468 26.3424 16.2277 26.3314 16.2073L25.4502 16.68C25.4822 16.7396 25.5177 16.7963 25.5566 16.8501L26.3673 16.2647ZM26.3314 16.2073L25.9892 15.5693L25.108 16.042L25.4502 16.68L26.3314 16.2073Z" fill="#334155"/>
<path d="M30.5333 17.1794L24 5" stroke="#334155" stroke-width="2" stroke-linecap="round"/>
<rect x="24.6" y="11.3243" width="4.91701" height="4" rx="1" transform="rotate(-28.21 24.6 11.3243)" fill="#334155"/>
<path fill-rule="evenodd" clip-rule="evenodd" d="M23.9762 12.5H4C3.44772 12.5 3 12.9477 3 13.5C3 14.0523 3.44772 14.5 4 14.5H23.5L23.9762 12.5ZM38.5 14.5L38.0238 12.5H58C58.5523 12.5 59 12.9477 59 13.5C59 14.0523 58.5523 14.5 58 14.5H38.5Z" fill="#334155"/>
<path d="M18.5 11L18.5 16" stroke="#334155" stroke-linecap="round"/>
<path d="M43.5 11L43.5 16" stroke="#334155" stroke-linecap="round"/>
<path d="M51.5 11L51.5 16" stroke="#334155" stroke-linecap="round"/>
<path d="M10.5 11L10.5 16" stroke="#334155" stroke-linecap="round"/>
</g>
<defs>
<clipPath id="clip0_384_66">
<rect width="165" height="25" fill="white"/>
</clipPath>
</defs>
</svg>
